<svg xmlns="http://www.w3.org/2000/svg" viewBox="0 0 178 48" role="img" aria-label="BeePlan">
  <g transform="translate(4 4) scale(0.625)">
    <g fill="none" stroke="#F5A623" stroke-width="2.4" stroke-linejoin="round" stroke-linecap="round">
      <path d="M32 7 L53.2 19.25 V44.75 L32 57 L10.8 44.75 V19.25 Z" />
      <path d="M13.5 32 H21.5 L25.5 23.5 L29.5 40.5 L33.5 32 H50.5" />
      <circle cx="13.5" cy="32" r="2.2" fill="#F5A623" stroke="none" />
      <circle cx="50.5" cy="32" r="2.2" fill="#F5A623" stroke="none" />
    </g>
    <g transform="translate(41.5 43.5) rotate(-32)">
      <ellipse cx="0" cy="0" rx="5.2" ry="3.6" fill="#F5A623" />
      <path d="M-3.8 -1.2 H3.8 M-3.4 1.2 H3.4" stroke="#fff" stroke-width="1.3" stroke-linecap="round" />
      <ellipse cx="-2.2" cy="-2.4" rx="2.6" ry="1.7" fill="#F5A623" opacity="0.82" />
      <ellipse cx="1.4" cy="-3.1" rx="2.6" ry="1.7" fill="#F5A623" opacity="0.82" />
      <circle cx="4.4" cy="-0.4" r="2.1" fill="#F5A623" />
      <path d="M5.2 -2.2 L6.4 -4.2 M5.8 -0.2 L7.1 -1.6" stroke="#F5A623" stroke-width="1.1" stroke-linecap="round" />
    </g>
  </g>
  <text
    x="52"
    y="33"
    font-family="Roboto, Helvetica, Arial, sans-serif"
    font-size="26"
    font-weight="600"
    letter-spacing="-0.02em"
  >
    <tspan fill="#F5A623">Bee</tspan><tspan fill="#5D4037">Plan</tspan>
  </text>
</svg>
